<svg id="Capa_1" data-name="Capa 1" xmlns="http://www.w3.org/2000/svg" viewBox="0 0 1200 1200"><defs><style>.cls-1,.cls-2{fill:#f5e284;}.cls-1{stroke:#fff;}.cls-1,.cls-4{stroke-miterlimit:10;stroke-width:20px;}.cls-3{fill:#fff;}.cls-4{fill:none;stroke:#f5e284;stroke-linecap:round;}</style></defs><title>LOGO_TFG_IVÁN</title><circle class="cls-1" cx="600" cy="421.93" r="80.77" transform="translate(-122.61 547.84) rotate(-45)"/><path class="cls-2" d="M388.36,928a86.7,86.7,0,0,1-86.61-86.61V611.55l8.73-1.12A289.18,289.18,0,0,1,347,608.07a268.16,268.16,0,0,1,51.88,5c26.14,5.16,42,12.4,55.91,18.78,15.41,7.05,27.58,12.62,50.16,13.83,2.61.14,5.22.21,7.74.21,27.63,0,46.39-8.49,66.25-17.47,20.84-9.43,42.39-19.17,75.19-21,2.78-.16,5.54-.23,8.19-.23,28.06,0,45.26,8.68,61.89,17.09,14.69,7.41,29.88,15.08,54.52,17.79a179,179,0,0,0,19.38,1.06c27.55,0,56.56-6.47,86.23-19.22l14-6V841.39A86.7,86.7,0,0,1,811.64,928Z"/><path class="cls-3" d="M662.28,617.24c49.57,0,60.47,28.8,115.32,34.82a187.16,187.16,0,0,0,20.47,1.12c24.32,0,54.46-4.68,90.18-20V841.39A76.61,76.61,0,0,1,811.64,918H388.36a76.61,76.61,0,0,1-76.61-76.61v-221A277.66,277.66,0,0,1,347,618.07a257.28,257.28,0,0,1,49.94,4.85c53.74,10.62,61.73,30.34,107.47,32.78,2.85.16,5.6.23,8.28.23,58.66,0,79.15-35,142-38.48q4-.21,7.63-.21m0-20h0c-2.84,0-5.78.08-8.74.24-34.67,1.92-58.09,12.52-78.76,21.87-19.67,8.9-36.66,16.58-62.13,16.58-2.34,0-4.77-.07-7.21-.2-20.68-1.1-31.52-6.07-46.53-12.93-13.74-6.29-30.83-14.11-58.13-19.5A277.89,277.89,0,0,0,347,598.07a298.08,298.08,0,0,0-37.75,2.44l-17.46,2.24V841.39A96.72,96.72,0,0,0,388.36,938H811.64a96.72,96.72,0,0,0,96.61-96.61V602.77l-27.9,12c-28.41,12.22-56.1,18.41-82.28,18.41a169,169,0,0,1-18.29-1c-22.83-2.51-36.56-9.44-51.1-16.78-16.85-8.51-36-18.16-66.4-18.16Z"/><path class="cls-3" d="M512.65,680.31c-2.48,0-5-.08-7.63-.25-22.23-1.44-34.3-8.14-49.58-16.61-14-7.77-29.89-16.58-56.21-22.89A224.51,224.51,0,0,0,347,634.41a236.11,236.11,0,0,0-25.21,1.37V597.42c0-45.71,29.88-82.9,66.61-82.9H811.64c36.73,0,66.61,37.19,66.61,82.9v59.12C850.65,670.11,823.7,677,798.07,677a146,146,0,0,1-19.15-1.27c-24.34-3.24-39.43-12.48-54-21.42C708.12,644,690.78,633.4,662.28,633.4c-2.69,0-5.49.09-8.31.28-33.14,2.23-55.78,14.65-75.76,25.61C557.64,670.57,539.88,680.31,512.65,680.31Z"/><path class="cls-2" d="M811.64,524.52c14.38,0,28.14,7.08,38.74,19.93,11.53,14,17.87,32.78,17.87,53v52.8C844,661.35,820.44,667,798.07,667a136.32,136.32,0,0,1-17.83-1.18c-22.24-3-35.79-11.26-50.13-20C713,635.28,693.6,623.4,662.28,623.4c-2.92,0-5.93.1-9,.3-35.34,2.38-59,15.36-79.9,26.82-19.36,10.62-36.09,19.79-60.75,19.79-2.27,0-4.62-.07-7-.23-20-1.3-30.64-7.2-45.38-15.38-13.85-7.68-31.08-17.24-58.73-23.86a234.08,234.08,0,0,0-54.6-6.43c-5,0-10.11.16-15.21.48V597.42c0-20.19,6.34-39,17.87-53,10.6-12.85,24.36-19.93,38.74-19.93H811.64m0-20H388.36c-42.31,0-76.61,41.59-76.61,92.9v49.75A230,230,0,0,1,347,644.41a213.14,213.14,0,0,1,49.94,5.88c53.74,12.87,61.73,36.78,107.47,39.75,2.84.18,5.61.27,8.28.27,58.67,0,79.15-42.43,142-46.65,2.64-.18,5.18-.26,7.63-.26,49.57,0,60.47,34.92,115.32,42.22A154.16,154.16,0,0,0,798.07,687c24.32,0,54.45-5.67,90.18-24.3V597.42c0-51.31-34.3-92.9-76.61-92.9Z"/><path class="cls-4" d="M609.66,331.74c9.27-24.58,31.78-43.49,58.56-48.45a80.47,80.47,0,0,1,40.4,3.11"/></svg>