<svg xmlns="http://www.w3.org/2000/svg" version="1.1" xmlns:xlink="http://www.w3.org/1999/xlink" xmlns:svgjs="http://svgjs.com/svgjs" width="120" height="120"><svg id="SvgjsSvg1000" data-name="Capa 1" xmlns="http://www.w3.org/2000/svg" viewBox="0 0 120 120"><defs><style>.cls-1{fill:#f5e284;}.cls-1,.cls-2,.cls-3{stroke:#fff;stroke-miterlimit:10;}.cls-2{fill:#f5eaa7;}.cls-3{fill:#5b8e7d;}</style></defs><title>FAVICON</title><path class="cls-1" d="M103.92,46.05l4.26-2.56S115,46.9,116.7,56.27s-6,34.08-25.56,43.46C87.23,101.6,63.6,109.81,46,104.84,28.86,100,27.24,95.47,27.24,95.47l4.26-2.56s22.15,2.56,38.34-2.56S98,74.16,101.37,62.24,103.92,46.05,103.92,46.05Z"></path><path class="cls-2" d="M29.79,87.8l.85,3.41S67,94,82.62,83.54c15.34-10.23,17.89-23,18.75-29.82l.85-6.82L98,44.34A49.41,49.41,0,0,1,93.7,55.42c-3.41,6.82-14,20.19-26.42,24.71C48.54,87,28.94,87.8,29.79,87.8Z"></path><path class="cls-3" d="M107.33,42.64l-4.26,2.56L98,42.64V29.86l-6,8.52H86.88l-2.56-6,6.82-8.52s-1.7,0-1.7-2.55,1.7-8.52,2.55-7.67.86,6.82,10.23,5.11,10.22-2.55,11.93-1.7-1.71,7.67-4.26,8.52-3.41,1.7-4.26,1.7S107.33,42.64,107.33,42.64Z"></path><path class="cls-3" d="M28.94,87.8l1.33,4.47-3.41,2.56c-.58-.45-2.27-2-2.18-3.62S28.94,87.8,28.94,87.8Z"></path><path class="cls-1" d="M87.73,39.23l4.93.14s1.83,6.49-2.3,15.34S67.05,83.13,47.69,81.83c-3.87-.26-24.33-1-34.09-13.63-9.48-12.3-10.22-23-10.22-23H7.64S23,59.76,37.46,63.09s29.28-2,38.53-10.58S87.73,39.23,87.73,39.23Z"></path><path class="cls-2" d="M9.34,40.08,7.57,44.57s23,20,40.12,18.52c16.8-1.46,21.5-7.85,27.26-11.93C81,46.88,86,38.38,86,38.38l-2.56-5.11A38.21,38.21,0,0,1,73.55,43c-6.33,4.22-21.17,8.78-32.64,6.73C23.62,46.67,9.19,38.77,9.34,40.08Z"></path><path class="cls-3" d="M8.75,39.93,7.15,44.4,3.25,45c-.16-.66-.49-2.79.51-4.15S8.75,39.93,8.75,39.93Z"></path></svg><style>@media (prefers-color-scheme: light) { :root { filter: none; } }
</style></svg>