<svg id="Capa_1" data-name="Capa 1" xmlns="http://www.w3.org/2000/svg" viewBox="0 0 120 120"><defs><style>.cls-1{fill:#eac400;}.cls-2{fill:#fff;}.cls-3{fill:none;stroke:#eac400;stroke-linecap:round;stroke-miterlimit:10;stroke-width:2px;}</style></defs><title>ALERGENOS</title><circle class="cls-1" cx="60.5" cy="60.5" r="58.5"/><path class="cls-2" d="M35,38c3-1,5,2,9,0s4-6,9-5,8,5,8,8-1,14-8,16-14,3-18,0-7-11-5-15S35,38,35,38Z"/><path class="cls-3" d="M40.32,43.49c4.8,1.36,10.16-1.25,10.68-3.36,0,0,.55.14,0-.81"/><path class="cls-2" d="M47,67.7c3.06.81,3.08,4.42,7.52,4.94s6.64-2.82,10.27.77,3.94,8.57,2.3,11.07-8.53,11.16-15.48,9-13.34-5.17-15-9.88.19-13,4.06-15.28S47,67.7,47,67.7Z"/><path class="cls-3" d="M46.43,73.21C49.69,77,55.6,77.75,57.2,76.27c0,0,.37.41.4-.7"/><path class="cls-2" d="M72.49,44.33c3.13.42,3.61,4,8.08,4s6.23-3.64,10.28-.54,5,8,3.68,10.7S86.17,72.28,79,71s-12.58-5.15-14.85-9.6-1.46-13,2.09-15.67S72.49,44.33,72.49,44.33Z"/><path class="cls-3" d="M74.86,51.59c1.75,4,6.31,4.56,11.07,1.68,0,0,.43.36.32-.75"/></svg>