<svg id="Capa_1" data-name="Capa 1" xmlns="http://www.w3.org/2000/svg" viewBox="0 0 120 120"><defs><style>.cls-1{fill:#69b64c;}.cls-2{fill:#fff;}</style></defs><title>ALERGENOS</title><circle class="cls-1" cx="59.5" cy="60.5" r="58.5"/><path class="cls-2" d="M73.42,62.82s11.22-6.24,12.47-8.73,0-5-3.74-3.75,2.49-2.49,2.49-5-8.73,0-8.73,2.5,3.74-12.48,1.25-17.47-5-8.73-6.24,0S68.17,50,69.42,52.5s-3.76-7.25-5-6-1.25,6.26,0,10,6.24,3.51,5,11-1,27-2.24,31.5a12.05,12.05,0,0,1-3.75,6.24s1.25,5,1.25-15-5-38.68-3.74-43.67,5-11.23,6.24-13.72-1.25-3.75-2.5-2.5,0-2.49,2.5-7.48-2.5-3.75-3.75,0,1.25-8.74-1.24-11.23-6.24-1.25-5,6.24,2.49,5-1.25,3.74-8.73-1.25-5,2.49,5.7,7.62,4.46,11.36-1,3,1.78,13.6C60.38,61.22,56,86.52,58.44,92.76s2.5,13.72,1.25,11.23S56,80.29,54.7,70.3s-2.49-12.47-2.49-16.21,1.24-7.49,1.24-8.74-2.49-1.24-3.74,0-2.49-3.74,0-8.73-3.74-11.23-5-6.24S43.17,38,44.42,40.5s-2.19-7.62-5.94-10.12-8.73,0-3.74,5,5,6.24,7.49,7.49-2.07-.61-5.81.64-1.68,5.6,2.06,5.6,6.24-2.5,7.49-1.25,1.25,3.74,2.49,10S47.22,105.24,56,109s13.72,0,15-5,2.5-26.2,2.5-29.94Z"/></svg>