<svg id="Capa_1" data-name="Capa 1" xmlns="http://www.w3.org/2000/svg" viewBox="0 0 120 120"><defs><style>.cls-1{fill:#c67c59;}.cls-2{fill:#fff;}</style></defs><title>ALERGENOS</title><circle class="cls-1" cx="60.25" cy="60.12" r="58.5"/><path class="cls-2" d="M90.18,25.66c-7.38-6.28-20.55-2.92-29.42,7.5-3.59,4.21-4.88,11.1-5.9,15.64-6.7,1.28-14.85,3.29-20.5,9.92C24,70.93,22.51,86.75,31.1,94.07s24,3.35,34.37-8.86c5.31-6.24,7.29-14.13,7.79-20.64,4.67-1.64,10.34-4.13,14.21-8.67C96.34,45.47,97.55,31.94,90.18,25.66Z"/><ellipse class="cls-1" cx="44.87" cy="89.39" rx="5.26" ry="3.94" transform="translate(-32.93 26.54) rotate(-24.41)"/><ellipse class="cls-1" cx="32.78" cy="82.42" rx="4.64" ry="3.22" transform="translate(-31.13 20.92) rotate(-24.41)"/><ellipse class="cls-1" cx="55.46" cy="77.51" rx="4.15" ry="3.38" transform="translate(-27.08 29.85) rotate(-24.41)"/><ellipse class="cls-1" cx="43" cy="76.38" rx="3.5" ry="3.48" transform="translate(-27.72 24.6) rotate(-24.41)"/><ellipse class="cls-1" cx="89.1" cy="37.46" rx="3.01" ry="4.01" transform="matrix(0.99, -0.16, 0.16, 0.99, -4.95, 15.19)"/></svg>