<svg id="Capa_1" data-name="Capa 1" xmlns="http://www.w3.org/2000/svg" viewBox="0 0 120 120"><defs><style>.cls-1{fill:#eac400;}.cls-2{fill:#fff;}.cls-3{fill:none;stroke:#fff;stroke-linecap:round;stroke-miterlimit:10;stroke-width:4px;}</style></defs><title>ALERGENOS</title><circle class="cls-1" cx="60" cy="61" r="58.5"/><path class="cls-2" d="M57.4,82.8,46.31,80.4a1.25,1.25,0,0,0-1.51,1.31l.71,9.94a1.25,1.25,0,0,0,1,1.14L57.44,95a1.26,1.26,0,0,0,1.5-1.3L58.38,84A1.24,1.24,0,0,0,57.4,82.8Z"/><path class="cls-2" d="M62.6,82.8l11.09-2.4a1.25,1.25,0,0,1,1.51,1.31l-.71,9.94a1.25,1.25,0,0,1-1,1.14L62.56,95a1.26,1.26,0,0,1-1.5-1.3L61.62,84A1.24,1.24,0,0,1,62.6,82.8Z"/><path class="cls-2" d="M57.4,68.46l-11.09-2.4a1.25,1.25,0,0,0-1.51,1.31l.71,9.94a1.24,1.24,0,0,0,1,1.13l10.93,2.19a1.26,1.26,0,0,0,1.5-1.3l-.56-9.72A1.24,1.24,0,0,0,57.4,68.46Z"/><path class="cls-2" d="M62.6,68.46l11.09-2.4a1.25,1.25,0,0,1,1.51,1.31l-.71,9.94a1.24,1.24,0,0,1-1,1.13L62.56,80.63a1.26,1.26,0,0,1-1.5-1.3l.56-9.72A1.24,1.24,0,0,1,62.6,68.46Z"/><path class="cls-2" d="M57.4,54.11l-11.09-2.4A1.25,1.25,0,0,0,44.8,53L45.51,63a1.25,1.25,0,0,0,1,1.14l10.93,2.18A1.25,1.25,0,0,0,58.94,65l-.56-9.73A1.24,1.24,0,0,0,57.4,54.11Z"/><path class="cls-2" d="M62.6,54.11l11.09-2.4A1.25,1.25,0,0,1,75.2,53L74.49,63a1.25,1.25,0,0,1-1,1.14L62.56,66.28A1.25,1.25,0,0,1,61.06,65l.56-9.73A1.24,1.24,0,0,1,62.6,54.11Z"/><path class="cls-2" d="M57.4,39.76l-11.09-2.4a1.25,1.25,0,0,0-1.51,1.31l.71,9.94a1.25,1.25,0,0,0,1,1.14l10.93,2.19a1.26,1.26,0,0,0,1.5-1.3l-.56-9.73A1.24,1.24,0,0,0,57.4,39.76Z"/><path class="cls-2" d="M62.6,39.76l11.09-2.4a1.25,1.25,0,0,1,1.51,1.31l-.71,9.94a1.25,1.25,0,0,1-1,1.14L62.56,51.94a1.26,1.26,0,0,1-1.5-1.3l.56-9.73A1.24,1.24,0,0,1,62.6,39.76Z"/><path class="cls-2" d="M51.68,28.07l6.14-7.74a1.25,1.25,0,0,1,2-.15l6.52,7.53a1.26,1.26,0,0,1,.1,1.52L60.25,38.5a1.25,1.25,0,0,1-2,.14l-6.49-9.06A1.25,1.25,0,0,1,51.68,28.07Z"/><line class="cls-3" x1="60" y1="98" x2="60" y2="105"/></svg>