<svg id="Capa_1" data-name="Capa 1" xmlns="http://www.w3.org/2000/svg" viewBox="0 0 120 120"><defs><style>.cls-1{fill:#f56a67;}.cls-2{fill:#fff;}.cls-3{fill:none;stroke:#fff;stroke-linecap:round;stroke-miterlimit:10;stroke-width:4px;}</style></defs><title>ALERGENOS</title><circle class="cls-1" cx="59.94" cy="60.34" r="58.5"/><path class="cls-2" d="M68.39,82.8A10.7,10.7,0,0,1,50,82.27l-4-7.16L42,68A10.71,10.71,0,0,1,51.19,52l9.64-.15,7.66-.13a10.71,10.71,0,0,1,9.2,16.46l-4.12,6.46Z"/><circle class="cls-2" cx="53.18" cy="46.17" r="3.52"/><circle class="cls-2" cx="64.9" cy="46.17" r="3.52"/><path class="cls-3" d="M44.74,81.91C33.89,86,31,92.42,31.1,95"/><path class="cls-2" d="M39.7,58.27A9.07,9.07,0,0,1,38,61c-1.31,1.68-20.3-4.61-15.55-16.8,5.43-13.94,9.85-18.34,11.55-18s1,8.2.68,14.33-1.35,6.81-.33,10.57,4.76,2.77,5.09-3.37,2.37-16.35,2-19.08,1-5.11,4.42,0,4.77,16.06,0,22.16C43.37,54.09,40.47,55.92,39.7,58.27Z"/><path class="cls-2" d="M80.18,58.27A9.07,9.07,0,0,0,81.88,61c1.31,1.68,20.31-4.61,15.55-16.8-5.43-13.94-9.84-18.34-11.54-18s-1,8.2-.69,14.33,1.36,6.81.34,10.57-4.76,2.77-5.1-3.37-2.37-16.35-2-19.08-1-5.11-4.42,0-4.76,16.06,0,22.16C76.51,54.09,79.42,55.92,80.18,58.27Z"/><path class="cls-3" d="M74.45,81.91C85.31,86,88.2,92.42,88.1,95"/><path class="cls-3" d="M39,72.54c-6.3,2.38-8,6.1-7.92,7.62"/><path class="cls-3" d="M80.88,72.54c6.3,2.38,8,6.1,7.92,7.62"/></svg>