<svg id="Capa_1" data-name="Capa 1" xmlns="http://www.w3.org/2000/svg" viewBox="0 0 120 120"><defs><style>.cls-1{fill:#c67c59;}.cls-2{fill:#fff;}.cls-3{fill:none;stroke:#c67c59;stroke-linecap:round;stroke-miterlimit:10;stroke-width:2px;}</style></defs><title>ALERGENOS</title><circle class="cls-1" cx="60.5" cy="60.5" r="58.5"/><path class="cls-2" d="M28.05,95.07c5.45-5.72,59.58-59.88,61.52-62.84s5.82-8.87,4.9-1,2.22,8.22,3.23,13.12.1,12.75-3.23,13.95S91,61.06,91.8,67.53,87.36,78.15,84,79.36,80.53,82.13,76.65,88,73,92.39,64.91,93s-8.59,5.36-13.48,6.38-5.92-3.88-9.06-4.25-5.08,2.59-8.22,2.22A16.4,16.4,0,0,1,28.05,95.07Z"/><path class="cls-2" d="M93,25.93C87.5,31.66,33.37,85.81,31.43,88.77s-5.82,8.87-4.9,1-2.22-8.22-3.23-13.12-.1-12.75,3.23-13.95S30,59.94,29.2,53.47,33.64,42.85,37,41.64s3.51-2.77,7.39-8.68,3.7-4.35,11.74-5,8.59-5.36,13.48-6.38,5.92,3.88,9.06,4.25,5.08-2.59,8.22-2.22A16.4,16.4,0,0,1,93,25.93Z"/><path class="cls-3" d="M29.43,69.76c4.9-1,11.36-1.85,11.73-5s-2.58-5.08.93-7.86"/><path class="cls-3" d="M64.14,41.12c.23-5,0-11.51,3.07-12.38s5.42,1.75,7.6-2.15"/><path class="cls-3" d="M50.64,94.18a11.16,11.16,0,0,1,4.86-4.33c2.83-1.26,4.48-1.37,7.08-3.15"/><path class="cls-3" d="M83.76,67.45a11.14,11.14,0,0,1,1.83-6.24c1.73-2.57,3.07-3.55,4.33-6.43"/></svg>