<svg id="Capa_1" data-name="Capa 1" xmlns="http://www.w3.org/2000/svg" viewBox="0 0 120 120"><defs><style>.cls-1{fill:#938eae;}.cls-2{fill:#fff;}</style></defs><title>ALERGENOS</title><circle class="cls-1" cx="60.5" cy="60.5" r="58.5"/><rect class="cls-2" x="49.62" y="18.31" width="20.75" height="22.23" rx="4" ry="4" transform="translate(89.43 -30.57) rotate(90)"/><rect class="cls-2" x="46.73" y="14.95" width="26.54" height="10.97" rx="4" ry="4" transform="translate(120 40.86) rotate(180)"/><path class="cls-1" d="M48.64,99.05a8.26,8.26,0,0,1-8.25-8.25V69.63a23.41,23.41,0,0,0,9.08,2A19.16,19.16,0,0,0,54.25,71c4.23-1.09,7.36-3.43,10.13-5.49,3.2-2.39,6-4.45,9.86-4.45a12.87,12.87,0,0,1,5.37,1.27V90.8a8.26,8.26,0,0,1-8.25,8.25Z"/><path class="cls-2" d="M74.24,63.05h.06a10.05,10.05,0,0,1,3.31.61V90.8a6.25,6.25,0,0,1-6.25,6.25H48.64a6.25,6.25,0,0,1-6.25-6.25V72.48a24,24,0,0,0,7.08,1.12,21.29,21.29,0,0,0,5.28-.67c4.61-1.19,7.91-3.66,10.82-5.83s5.44-4,8.67-4m0-4c-8.29,0-12,7.8-20.49,10a16.83,16.83,0,0,1-4.28.55,23.15,23.15,0,0,1-11.08-3.15V90.8a10.25,10.25,0,0,0,10.25,10.25H71.36A10.25,10.25,0,0,0,81.61,90.8V61.09a15.25,15.25,0,0,0-7.28-2Z"/><path class="cls-2" d="M71.36,35.05H48.64A10.25,10.25,0,0,0,38.39,45.3V66.45C45,70,50.06,70,53.75,69.05c8.56-2.21,12.22-10,20.58-10a15.25,15.25,0,0,1,7.28,2V45.3A10.25,10.25,0,0,0,71.36,35.05Z"/></svg>