<svg id="Capa_1" data-name="Capa 1" xmlns="http://www.w3.org/2000/svg" viewBox="0 0 120 120"><defs><style>.cls-1{fill:#f56a67;}.cls-2,.cls-4{fill:#fff;}.cls-3{fill:none;stroke-linecap:round;stroke-width:2px;}.cls-3,.cls-4{stroke:#f56a67;stroke-miterlimit:10;}</style></defs><title>ALERGENOS</title><circle class="cls-1" cx="60.5" cy="60.5" r="58.5"/><path class="cls-2" d="M53.39,79.11c-1.27.26,5.39,8.74-4.14-1.76C44.38,72,29,57.09,29,48c0-11,21-21,32-21s29,6,32,19c1.59,6.89-16,31-21,33C68.16,80.54,58.16,78.15,53.39,79.11Z"/><path class="cls-3" d="M62.92,78.9c-7-9.4-13.22-22.27-9.54-36q.25-1,.57-1.92"/><path class="cls-3" d="M59.9,78.82C67,69.54,73.46,56.76,70,42.94c-.17-.65-.35-1.29-.55-1.93"/><path class="cls-3" d="M55.06,78.25C47.56,70.63,40.53,59.8,43.24,47c.13-.6.27-1.2.44-1.8"/><path class="cls-3" d="M68.92,78.21C76.48,70.65,83.6,59.87,81,47c-.13-.6-.27-1.2-.43-1.8"/><ellipse class="cls-4" cx="61.05" cy="81.38" rx="12.48" ry="4.37"/></svg>