<svg id="Capa_1" data-name="Capa 1" xmlns="http://www.w3.org/2000/svg" viewBox="0 0 120 120"><defs><style>.cls-1,.cls-5{fill:#f89f1d;}.cls-2,.cls-3,.cls-4{fill:#fff;}.cls-2,.cls-4{stroke:#f89f1d;stroke-miterlimit:10;}.cls-2{stroke-linecap:round;stroke-width:5px;}.cls-4{stroke-width:2px;}.cls-5{font-size:20px;font-family:Cocogoose, Cocogoose;letter-spacing:0em;}</style></defs><title>ALERGENOS</title><circle class="cls-1" cx="59.5" cy="60.5" r="58.5"/><line class="cls-2" x1="73.36" y1="30" x2="88.07" y2="42.26"/><path class="cls-3" d="M90.88,36.61a1.45,1.45,0,0,1,.11,1A4.6,4.6,0,0,1,83.67,40l-3.88-3.13L75.92,33.7a4.6,4.6,0,0,1,.49-7.51,1.67,1.67,0,0,1,1.38-.13l3.84,1.37a1.59,1.59,0,0,0,1.88-.64l2.63-4.06a1.45,1.45,0,0,1,.85-.65,4.61,4.61,0,0,1,5.71,4.68,1.55,1.55,0,0,1-.38.88l-2.93,3.45a1.58,1.58,0,0,0-.23,1.69Z"/><rect class="cls-4" x="19.24" y="49.94" width="76" height="30.12" rx="11.83" ry="11.83" transform="translate(-29.32 67.85) rotate(-50.52)"/><text class="cls-5" transform="translate(49.09 68.91)">M</text></svg>