<svg id="Capa_1" data-name="Capa 1" xmlns="http://www.w3.org/2000/svg" viewBox="0 0 120 120"><defs><style>.cls-1{fill:#938eae;}.cls-2{fill:#fffeff;}.cls-3{fill:none;stroke:#938eae;stroke-linecap:round;stroke-miterlimit:10;}</style></defs><title>ALERGENOS</title><circle class="cls-1" cx="59.5" cy="60.5" r="58.5"/><path class="cls-2" d="M59.5,76.54c-2.23,4.47.47,11.46,4,15,3,3,9,6,12,2s2-9-2-12S60.5,74.54,59.5,76.54Z"/><path class="cls-3" d="M65.5,79.54a9.8,9.8,0,0,1,6.22,3.57,6.53,6.53,0,0,1,.78,1.43"/><path class="cls-2" d="M31.69,69.2c-2.75,5.49.57,14.09,4.91,18.44,3.69,3.68,11.07,7.37,14.76,2.45S53.81,79,48.9,75.34,32.92,66.74,31.69,69.2Z"/><path class="cls-3" d="M39.06,72.89c1.45.26,5.39,1.19,7.65,4.39a8.48,8.48,0,0,1,1,1.75"/><path class="cls-2" d="M49.69,26.2c-2.75,5.49.57,14.09,4.91,18.44,3.69,3.68,11.07,7.37,14.76,2.45S71.81,36,66.9,32.34,50.92,23.74,49.69,26.2Z"/><path class="cls-3" d="M57.06,29.89c1.45.26,5.39,1.19,7.65,4.39a8.48,8.48,0,0,1,1,1.75"/><path class="cls-2" d="M48.33,52.09c-2.28,4.58.48,11.73,4.1,15.35,3.07,3.07,9.21,6.15,12.28,2s2.05-9.21-2-12.28S49.36,50,48.33,52.09Z"/><path class="cls-3" d="M54.48,55.16c1.2.22,4.48,1,6.37,3.65a7.58,7.58,0,0,1,.79,1.47"/><path class="cls-2" d="M24.42,44.14C21.89,49.18,25,57.06,29,61c3.39,3.38,10.18,6.76,13.58,2.25s2.26-10.14-2.27-13.52S25.55,41.89,24.42,44.14Z"/><path class="cls-3" d="M31.21,47.52c1.34.25,5,1.09,7,4a7.83,7.83,0,0,1,.88,1.61"/><path class="cls-2" d="M72.55,53.23c-2.89,5.72.6,14.68,5.18,19.2,3.88,3.85,11.64,7.69,15.52,2.57s2.58-11.53-2.59-15.37S73.85,50.66,72.55,53.23Z"/><path class="cls-3" d="M80.31,57.07c1.53.28,5.67,1.24,8,4.57a9.08,9.08,0,0,1,1,1.83"/></svg>