<svg id="Capa_1" data-name="Capa 1" xmlns="http://www.w3.org/2000/svg" viewBox="0 0 120 120"><defs><style>.cls-1{fill:#69b74a;}.cls-2{fill:#fff;}.cls-3{fill:none;stroke:#69b74a;stroke-miterlimit:10;stroke-width:4px;}</style></defs><title>ALERGENOS</title><circle class="cls-1" cx="60.5" cy="60.5" r="58.5"/><path class="cls-2" d="M89.05,43.53C87.79,30.63,77,31,70,36c-4.62,3.3-7.72,7.45-9,12-1.12.21-3.74.25-4.86.69a17.32,17.32,0,0,0-9.93,9.63,19.67,19.67,0,0,0-7.33,1.45C30.79,63,23,66.58,25.22,72.68s13.48,12.4,21.57,9.17A19.34,19.34,0,0,0,56,74.5a17.61,17.61,0,0,0,9.29-1A17,17,0,0,0,75.58,62.63a19.13,19.13,0,0,0,3.35-1C87,58.49,89.75,50.78,89.05,43.53Z"/><ellipse class="cls-3" cx="44.68" cy="70.64" rx="8.31" ry="6.95" transform="translate(-8.1 5.83) rotate(-6.84)"/><ellipse class="cls-3" cx="61.68" cy="61.64" rx="8.31" ry="6.95" transform="translate(-19.89 30.83) rotate(-24.29)"/><ellipse class="cls-3" cx="74.68" cy="49.64" rx="8.31" ry="6.95" transform="translate(-13.22 67.35) rotate(-45)"/></svg>