<svg id="Capa_1" data-name="Capa 1" xmlns="http://www.w3.org/2000/svg" viewBox="0 0 120 120"><defs><style>.cls-1,.cls-4,.cls-5,.cls-6{fill:#f5e284;}.cls-1{stroke:#fff;stroke-linecap:round;stroke-linejoin:round;stroke-width:3px;}.cls-2,.cls-3{fill:#fff;}.cls-3,.cls-4{stroke:#f5e284;stroke-miterlimit:10;stroke-width:4px;}.cls-6{font-size:37px;font-family:Cocogoose, Cocogoose;letter-spacing:-0.03em;}.cls-7{letter-spacing:0em;}.cls-8{letter-spacing:-0.01em;}</style></defs><title>ICONOS INGREDIENTES</title><rect class="cls-1" x="-142.5" y="-5.5" width="1385" height="136"/><circle class="cls-2" cx="60" cy="60" r="58.5"/><path class="cls-3" d="M57.46,55.5c-5.2-1.87-12.52-3.29-22.33-1.79L39.6,79.45c1.39,8.21,7,14,13.46,14H66.12c6.37,0,11.91-5.67,13.4-13.72l3.94-20.31a11.36,11.36,0,0,1-2.92,2C73.57,64.79,66.33,58.69,57.46,55.5Z"/><path class="cls-4" d="M71.5,28.57H48.12c-8.8,0-17,1.56-15.14,12.73l2.15,12.41c9.81-1.5,17.13-.08,22.33,1.79,8.87,3.19,16.11,9.29,23.08,6a11.36,11.36,0,0,0,2.92-2L87,41.3C89.06,30.05,80.41,28.57,71.5,28.57Z"/><rect class="cls-5" x="28.5" y="26.5" width="63" height="13.96" rx="4" ry="4" transform="translate(120 66.96) rotate(180)"/><text class="cls-6" transform="translate(144.15 69.48)">o<tspan class="cls-7" x="25.96" y="0">t</tspan><tspan class="cls-8" x="41.99" y="0">r</tspan><tspan class="cls-7" x="62.88" y="0">os</tspan></text></svg>