<svg id="Capa_1" data-name="Capa 1" xmlns="http://www.w3.org/2000/svg" viewBox="0 0 120 120"><defs><style>.cls-1,.cls-3{fill:#f5e284;}.cls-2{fill:#fff;}.cls-3{stroke:#fff;stroke-miterlimit:10;stroke-width:4px;}</style></defs><title>ICONOS INGREDIENTES</title><rect class="cls-1" x="-284" y="-5" width="1365" height="129"/><circle class="cls-2" cx="60" cy="60" r="58.5"/><path class="cls-1" d="M54.34,14.06C36.13,28.45,13.18,78,18.89,94S55.45,82.59,73.18,81.44c23.25-1.49,34.73-13.64,29-29.63S75.06-2.31,54.34,14.06Z"/><path class="cls-2" d="M64.19,21C76,21,88.59,42.7,92.74,54.32c1.57,4.4,1.3,8.25-.8,11.45-3.26,5-11,8.23-21.11,8.92-6.83.46-15,4.51-22.87,8.42C41.14,86.5,34.08,90,30,90c-1.63,0-2.06-.49-2.47-1.64-1.85-5.18,1.22-18.07,7.64-32.08,6.6-14.4,15.33-27.21,22.24-32.64A11,11,0,0,1,64.19,21m0-4a14.89,14.89,0,0,0-9.3,3.5C39,33,18.79,75.92,23.71,89.71A6,6,0,0,0,30,94C40.13,94,59.09,79.49,71.1,78.68,91.38,77.31,101.43,66.77,96.5,53,92.43,41.55,79,17,64.19,17Z"/><ellipse class="cls-3" cx="43.47" cy="67.96" rx="8.31" ry="6.95" transform="translate(-34.97 86.8) rotate(-70.91)"/></svg>