<svg id="Capa_1" data-name="Capa 1" xmlns="http://www.w3.org/2000/svg" viewBox="0 0 120 120"><defs><style>.cls-1{fill:#f5e284;}.cls-2{fill:#fff;}.cls-3{fill:none;stroke:#f5e284;stroke-linecap:round;stroke-miterlimit:10;stroke-width:4px;}</style></defs><title>ICONOS INGREDIENTES</title><rect class="cls-1" x="-704" y="-5" width="1365" height="129"/><circle class="cls-2" cx="60" cy="60" r="58.5"/><path class="cls-1" d="M57.4,81.8,46.31,79.4a1.25,1.25,0,0,0-1.51,1.31l.71,9.94a1.25,1.25,0,0,0,1,1.14L57.44,94a1.26,1.26,0,0,0,1.5-1.3L58.38,83A1.24,1.24,0,0,0,57.4,81.8Z"/><path class="cls-1" d="M62.6,81.8l11.09-2.4a1.25,1.25,0,0,1,1.51,1.31l-.71,9.94a1.25,1.25,0,0,1-1,1.14L62.56,94a1.26,1.26,0,0,1-1.5-1.3L61.62,83A1.24,1.24,0,0,1,62.6,81.8Z"/><path class="cls-1" d="M57.4,67.46l-11.09-2.4a1.25,1.25,0,0,0-1.51,1.31l.71,9.94a1.24,1.24,0,0,0,1,1.13l10.93,2.19a1.26,1.26,0,0,0,1.5-1.3l-.56-9.72A1.24,1.24,0,0,0,57.4,67.46Z"/><path class="cls-1" d="M62.6,67.46l11.09-2.4a1.25,1.25,0,0,1,1.51,1.31l-.71,9.94a1.24,1.24,0,0,1-1,1.13L62.56,79.63a1.26,1.26,0,0,1-1.5-1.3l.56-9.72A1.24,1.24,0,0,1,62.6,67.46Z"/><path class="cls-1" d="M57.4,53.11l-11.09-2.4A1.25,1.25,0,0,0,44.8,52L45.51,62a1.25,1.25,0,0,0,1,1.14l10.93,2.18A1.25,1.25,0,0,0,58.94,64l-.56-9.73A1.24,1.24,0,0,0,57.4,53.11Z"/><path class="cls-1" d="M62.6,53.11l11.09-2.4A1.25,1.25,0,0,1,75.2,52L74.49,62a1.25,1.25,0,0,1-1,1.14L62.56,65.28A1.25,1.25,0,0,1,61.06,64l.56-9.73A1.24,1.24,0,0,1,62.6,53.11Z"/><path class="cls-1" d="M57.4,38.76l-11.09-2.4a1.25,1.25,0,0,0-1.51,1.31l.71,9.94a1.25,1.25,0,0,0,1,1.14l10.93,2.19a1.26,1.26,0,0,0,1.5-1.3l-.56-9.73A1.24,1.24,0,0,0,57.4,38.76Z"/><path class="cls-1" d="M62.6,38.76l11.09-2.4a1.25,1.25,0,0,1,1.51,1.31l-.71,9.94a1.25,1.25,0,0,1-1,1.14L62.56,50.94a1.26,1.26,0,0,1-1.5-1.3l.56-9.73A1.24,1.24,0,0,1,62.6,38.76Z"/><path class="cls-1" d="M51.68,27.07l6.14-7.74a1.25,1.25,0,0,1,2-.15l6.52,7.53a1.26,1.26,0,0,1,.1,1.52L60.25,37.5a1.25,1.25,0,0,1-2,.14l-6.49-9.06A1.25,1.25,0,0,1,51.68,27.07Z"/><line class="cls-3" x1="60" y1="97" x2="60" y2="104"/></svg>