<svg id="Capa_1" data-name="Capa 1" xmlns="http://www.w3.org/2000/svg" viewBox="0 0 120 120"><defs><style>.cls-1,.cls-3{fill:#f5e284;}.cls-2{fill:#fff;}.cls-3{stroke:#fff;stroke-miterlimit:10;stroke-width:2px;}</style></defs><title>ICONOS INGREDIENTES</title><rect class="cls-1" x="-1124" y="-5" width="1365" height="129"/><circle class="cls-2" cx="60" cy="60" r="58.5"/><path class="cls-3" d="M93.84,48.37l3.3-2.14s5.21,3,6.44,11S98.68,86.3,83.51,94.11c-3,1.56-21.28,8.34-34.79,3.91-13.13-4.3-14.33-8.2-14.33-8.2l3.3-2.14s17,2.41,29.52-1.79S89,72.34,91.72,62.18,93.84,48.37,93.84,48.37Z"/><path class="cls-3" d="M36.42,83.29l.63,2.92s28,2.72,40.06-6c11.89-8.58,14-19.48,14.69-25.3l.72-5.81-3.25-2.23a45.69,45.69,0,0,1-3.38,9.42c-2.69,5.79-11,17.11-20.55,20.85A104.4,104.4,0,0,1,36.42,83.29Z"/><path class="cls-3" d="M85,20.57c.65.74.59,5.84,7.82,4.48S100.67,23,102,23.71s-1.38,6.54-3.35,7.24-2.64,1.42-3.3,1.41,1.17,13.13,1.17,13.13l-3.3,2.14-3.91-2.24.12-10.92-4.67,7.22-3.93,0-1.91-5.13,5.32-7.21s-1.31,0-1.29-2.2,1.39-7.26,2-6.53"/><path class="cls-3" d="M35.77,83.28l1,3.84L34.1,89.27c-.44-.39-1.73-1.72-1.64-3.12S35.77,83.28,35.77,83.28Z"/><path class="cls-3" d="M81.45,42.38l3.79.16s1.35,5.57-1.91,13.09S65.13,79.69,50.24,78.38c-3-.26-18.7-1.09-26.09-12C17,55.77,16.49,46.61,16.49,46.61l3.28,0s11.66,12.6,22.78,15.59,22.54-1.38,29.74-8.64S81.45,42.38,81.45,42.38Z"/><path class="cls-3" d="M21.13,42.3l-1.41,3.82s17.52,17.33,30.7,16.24C63.36,61.28,67,55.87,71.5,52.44c4.68-3.59,8.64-10.81,8.64-10.81l-1.92-4.4a31.16,31.16,0,0,1-7.72,8.24C65.59,49,54.13,52.76,45.33,50.89,32.05,48.08,21,41.18,21.13,42.3Z"/><path class="cls-3" d="M20.67,42.17,19.4,46l-3,.45a5.14,5.14,0,0,1,.43-3.54C17.64,41.68,20.67,42.17,20.67,42.17Z"/></svg>