<svg id="Capa_1" data-name="Capa 1" xmlns="http://www.w3.org/2000/svg" viewBox="0 0 120 120"><defs><style>.cls-1{fill:#f5e284;}.cls-2{fill:#fff;}.cls-3{fill:none;stroke:#fff;stroke-linecap:round;stroke-miterlimit:10;stroke-width:4px;}</style></defs><title>ICONOS INGREDIENTES</title><rect class="cls-1" x="-564" y="-5" width="1365" height="129"/><circle class="cls-2" cx="60" cy="60.5" r="58.5"/><path class="cls-1" d="M83.74,62.11,79.5,54.37,63,24.1a3,3,0,0,0-5.27,0L41.33,53.36,36,62.87a27.38,27.38,0,0,0-1.27,8.25,26.28,26.28,0,0,0,17.6,25.14,24.3,24.3,0,0,0,15.08.08A26.28,26.28,0,0,0,85.25,71.12,27.34,27.34,0,0,0,83.74,62.11Z"/><path class="cls-3" d="M43,75c.2,6.28,3.72,11.77,9,14a15,15,0,0,0,11,0"/></svg>