<svg id="Capa_1" data-name="Capa 1" xmlns="http://www.w3.org/2000/svg" viewBox="0 0 120 120"><defs><style>.cls-1,.cls-3{fill:#f5e284;}.cls-2{fill:#fff;}.cls-3{stroke:#fff;stroke-miterlimit:10;stroke-width:4px;}</style></defs><title>ICONOS INGREDIENTES</title><rect class="cls-1" x="-844" y="-5" width="1365" height="129"/><circle class="cls-2" cx="60" cy="60" r="58.5"/><path class="cls-1" d="M92.05,46.53C90.79,33.63,80,34,73,39c-4.62,3.3-7.72,7.45-9,12-1.12.21-3.74.25-4.86.69a17.32,17.32,0,0,0-9.93,9.63,19.67,19.67,0,0,0-7.33,1.45C33.79,66,26,69.58,28.22,75.68s13.48,12.4,21.57,9.17A19.34,19.34,0,0,0,59,77.5a17.61,17.61,0,0,0,9.29-1A17,17,0,0,0,78.58,65.63a19.13,19.13,0,0,0,3.35-.95C90,61.49,92.75,53.78,92.05,46.53Z"/><ellipse class="cls-3" cx="47.68" cy="73.64" rx="8.31" ry="6.95" transform="translate(-8.43 6.21) rotate(-6.84)"/><ellipse class="cls-3" cx="64.68" cy="64.64" rx="8.31" ry="6.95" transform="translate(-20.86 32.33) rotate(-24.29)"/><ellipse class="cls-3" cx="77.68" cy="52.64" rx="8.31" ry="6.95" transform="translate(-14.47 70.35) rotate(-45)"/></svg>