<svg id="Capa_1" data-name="Capa 1" xmlns="http://www.w3.org/2000/svg" viewBox="0 0 120 120"><defs><style>.cls-1,.cls-3,.cls-4{fill:#f5e284;}.cls-2{fill:#fff;}.cls-3,.cls-4{stroke:#fff;stroke-miterlimit:10;}.cls-3{stroke-width:4px;}.cls-4{stroke-width:2px;}</style></defs><title>ICONOS INGREDIENTES</title><rect class="cls-1" x="-984" y="-5" width="1365" height="129"/><circle class="cls-2" cx="60" cy="60" r="58.5"/><path class="cls-3" d="M69.45,31.07c-6.27,5.82-9.53,17.07-14.8,24.7s-24,25.06-22.87,31.5,4.37,16.53,15.62,19.79,27.23-15,30.68-21.61S94.32,50.5,85.52,38.79,69.45,31.07,69.45,31.07Z"/><path class="cls-4" d="M82.1,27.21s-2.1-8-3-12.36-3.27-11.3-5.58-4.79S77.69,27,72,28c-6.82,1.21-8,2.79-16,12-7,8-11,9.33-5.33,8.85S62,42.62,66.46,45.4s3.32,6,3.27,11.3,5.68-5.75,10.2-8.24S81,55.74,90,56s6.36-2.51,2.15-11.17S91.1,27.5,82.1,27.21Z"/></svg>