<svg id="Capa_1" data-name="Capa 1" xmlns="http://www.w3.org/2000/svg" viewBox="0 0 1366 768"><defs><style>.cls-1{font-size:89.3px;font-family:Cocogoose, Cocogoose;}.cls-1,.cls-4,.cls-7{fill:#5b8e7d;}.cls-1,.cls-4{letter-spacing:0em;}.cls-2{letter-spacing:-0.02em;}.cls-3{letter-spacing:0em;}.cls-4{font-size:44.65px;font-family:CenturyGothic, Century Gothic;}.cls-5{fill:#f5e284;}.cls-5,.cls-6,.cls-7{stroke:#fdf8eb;stroke-miterlimit:10;}.cls-6{fill:#f5eaa7;}</style></defs><title>HOMELOGO</title><text class="cls-1" transform="translate(455.97 488.02)">P<tspan class="cls-2" x="60.32" y="0">L</tspan><tspan class="cls-3" x="111.27" y="0">AMESA</tspan></text><text class="cls-4" transform="translate(458.62 536.62)">El plan para tu mesa</text><path class="cls-5" d="M771.41,257.28l8.93-5.36s14.29,7.14,17.86,26.79-12.5,71.44-53.58,91.09c-8.2,3.92-57.73,21.13-94.66,10.71-35.9-10.12-39.3-19.64-39.3-19.64l8.93-5.36S666,360.87,700,350.15s58.94-33.93,66.08-58.94S771.41,257.28,771.41,257.28Z"/><path class="cls-6" d="M616,344.79l1.79,7.15s76.22,5.74,109-16.08c32.15-21.43,37.51-48.22,39.29-62.51l1.79-14.29-8.93-5.36s-1.79,8.93-8.93,23.22-29.31,42.32-55.37,51.8C655.32,343,614.24,344.79,616,344.79Z"/><path class="cls-7" d="M778.55,250.13l-8.93,5.36-10.71-5.36V223.34l-12.5,17.86H735.69l-5.36-12.5,14.29-17.86s-3.57,0-3.57-5.36,3.57-17.86,5.36-16.07,1.78,14.28,21.43,10.71,21.43-5.36,25-3.57-3.57,16.07-8.93,17.86S776.77,218,775,218,778.55,250.13,778.55,250.13Z"/><path class="cls-7" d="M614.24,344.79l2.79,9.38-7.15,5.36c-1.23-.94-4.77-4.17-4.57-7.59S614.24,344.79,614.24,344.79Z"/><path class="cls-5" d="M737.47,243l10.34.28s3.84,13.61-4.83,32.16S694.12,335,653.53,332.29c-8.1-.54-51-2.06-71.44-28.58-19.88-25.77-21.44-48.22-21.44-48.22h8.94S601.71,286,632.1,293s61.36-4.13,80.75-22.17S737.47,243,737.47,243Z"/><path class="cls-6" d="M573.16,244.77l-3.72,9.41s48.23,41.93,84.09,38.82c35.23-3.06,45.08-16.44,57.15-25,12.64-9,23.22-26.79,23.22-26.79l-5.36-10.71a80.22,80.22,0,0,1-20.8,20.44c-13.27,8.84-44.37,18.4-68.41,14.11C603.07,258.58,572.83,242,573.16,244.77Z"/><path class="cls-7" d="M571.92,244.45l-3.36,9.37L560.39,255c-.35-1.38-1-5.84,1.06-8.68S571.92,244.45,571.92,244.45Z"/></svg>