<svg id="Capa_1" data-name="Capa 1" xmlns="http://www.w3.org/2000/svg" viewBox="0 0 120 120"><defs><style>.cls-1{fill:#fff;stroke:#f5e284;stroke-miterlimit:10;stroke-width:4px;}</style></defs><title>LOGIN  LOG OUT</title><path class="cls-1" d="M44.18,79.7a28.5,28.5,0,1,1,31.65,0,50,50,0,0,1,25.56,19.48,57,57,0,1,0-82.78,0A50.08,50.08,0,0,1,44.18,79.7Z"/><path class="cls-1" d="M75.83,79.7a28.51,28.51,0,1,0-31.65,0,49.94,49.94,0,0,1,31.65,0Z"/><path class="cls-1" d="M75.83,79.7A49.89,49.89,0,0,0,18.61,99.17a57,57,0,0,0,82.78,0A50,50,0,0,0,75.83,79.7Z"/></svg>