<svg id="Capa_1" data-name="Capa 1" xmlns="http://www.w3.org/2000/svg" viewBox="0 0 120 120"><defs><style>.cls-1{fill:#fff;}.cls-2{fill:#f5e284;}.cls-2,.cls-3,.cls-4{stroke:#fff;stroke-miterlimit:10;}.cls-3{fill:#f5eaa7;}.cls-4{fill:#5b8e7d;}</style></defs><title>NAVBAR</title><circle class="cls-1" cx="60" cy="60" r="58.5"/><path class="cls-2" d="M88.92,47.32l3.25-2a13.75,13.75,0,0,1,6.5,9.75c1.3,7.15-4.55,26-19.5,33.15-3,1.43-21,7.7-34.45,3.9C31.66,88.49,30.42,85,30.42,85l3.25-2s16.9,2,29.25-1.95S84.37,68.77,87,59.67,88.92,47.32,88.92,47.32Z"/><path class="cls-3" d="M32.37,79.17l.65,2.6s27.74,2.1,39.65-5.85c11.7-7.8,13.65-17.55,14.3-22.75l.65-5.2L84.37,46a37.74,37.74,0,0,1-3.25,8.45C78.52,59.67,70.46,69.88,61,73.32A113.91,113.91,0,0,1,32.37,79.17Z"/><path class="cls-4" d="M91.52,44.72l-3.25,2-3.9-2V35l-4.55,6.5h-3.9l-2-4.55,5.2-6.5s-1.3,0-1.3-2,1.3-6.5,1.95-5.85.65,5.2,7.8,3.9,7.8-1.95,9.1-1.3-1.3,5.85-3.25,6.5S90.87,33,90.22,33,91.52,44.72,91.52,44.72Z"/><path class="cls-4" d="M31.72,79.17l1,3.42-2.6,2c-.45-.34-1.74-1.52-1.67-2.77S31.72,79.17,31.72,79.17Z"/><path class="cls-2" d="M76.57,42.12l3.77.11s1.39,5-1.76,11.7S60.8,75.62,46,74.62c-2.94-.19-18.55-.74-26-10.4-7.23-9.38-7.8-17.55-7.8-17.55h3.25s11.7,11.12,22.75,13.65,22.34-1.5,29.39-8.06S76.57,42.12,76.57,42.12Z"/><path class="cls-3" d="M16.77,42.77,15.42,46.2S33,61.46,46,60.32c12.83-1.11,16.41-6,20.8-9.1,4.6-3.26,8.45-9.75,8.45-9.75l-2-3.9A29.17,29.17,0,0,1,65.75,45c-4.83,3.22-16.14,6.7-24.89,5.14C27.66,47.8,16.66,41.77,16.77,42.77Z"/><path class="cls-4" d="M16.32,42.66,15.1,46.07l-3,.43a4.15,4.15,0,0,1,.39-3.16C13.31,42.26,16.32,42.66,16.32,42.66Z"/></svg>